<svg xmlns="http://www.w3.org/2000/svg" xmlns:xlink="http://www.w3.org/1999/xlink" width="285.015" height="319.947" viewBox="0 0 285.015 319.947">
  <defs>
    <radialGradient id="radial-gradient" cx="0.542" cy="0.387" r="0.5" gradientUnits="objectBoundingBox">
      <stop offset="0" stop-color="#304a7b"/>
      <stop offset="0.565" stop-color="#22d1a1"/>
      <stop offset="1" stop-color="#18253e"/>
    </radialGradient>
    <radialGradient id="radial-gradient-2" cx="0.5" cy="0.5" r="0.229" gradientTransform="matrix(0.972, -0.226, 0.397, 1.718, -0.185, -0.246)" gradientUnits="objectBoundingBox">
      <stop offset="0" stop-color="#304a7b"/>
      <stop offset="1" stop-color="#18253e"/>
    </radialGradient>
    <radialGradient id="radial-gradient-3" r="0.267" gradientTransform="translate(0.031 -0.375) scale(0.938 1.75)" xlink:href="#radial-gradient-2"/>
  </defs>
  <g id="Group_535" data-name="Group 535" transform="translate(-342 -3862.2)">
    <g id="Group_534" data-name="Group 534" transform="translate(7805 1419.2)" opacity="0.5">
      <circle id="Ellipse_134" data-name="Ellipse 134" cx="142.399" cy="142.399" r="142.399" transform="translate(-7462.79 2443.002)" fill="url(#radial-gradient)"/>
      <path id="Subtraction_28" data-name="Subtraction 28" d="M125.617,250.2l-.017-.013c33.754-32.213,44.5-71.86,28.037-103.469a2.925,2.925,0,0,0-2.855-1.587c-3.027,0-7.641,2.607-12.531,5.366l-.552.308c-4.484,2.533-10.064,5.685-13.867,5.685a4.239,4.239,0,0,1-3.769-1.824c-3.579-5.243.414-22.547,12.22-52.9C122,84.511,112.992,76.812,103.048,76.812a20.129,20.129,0,0,0-5.744.867c-4.027-5.625-1.992-9.855-.509-12.942,1-2.083,1.777-3.708.509-5.021A7.918,7.918,0,0,0,91.63,56.9a8.448,8.448,0,0,0-5.769,2.807c.034-.091,3.864-10.056,0-14.456-4.019-4.6-9.038-6.533-14.35-8.579C63.9,33.735,56.047,30.7,51.183,19.255a2.592,2.592,0,0,0-.819-.125c-2.027,0-4.933,1.973-7.218,3.689-.371.278-.733.558-1.087.83l-.63.483C39.8,25.4,38.377,26.5,37.825,26.5a.355.355,0,0,1-.121-.019c-3.657-1.522-6.321-6.511-8.667-10.914-1.837-3.452-3.424-6.423-5.088-6.929A120,120,0,0,0,0,3.745,143.049,143.049,0,0,1,32.573,0a141.5,141.5,0,0,1,100.7,41.712,141.516,141.516,0,0,1,41.706,100.7A142.316,142.316,0,0,1,125.617,250.2Z" transform="translate(-7352.966 2443)" fill="#304a7b" opacity="0.31"/>
    </g>
    <g id="head-02" transform="translate(315.556 3980.182)">
      <path id="Path_981" data-name="Path 981" d="M80.84,177.18c-1.37-.15-6.55-.78-7.84-.18-6.5,3.05-9.45,4.79-16.49,3.86-4.82-.62-10.36-6.56-8.16-12.53.93-2.52.25-4.84.64-7.22a1.78,1.78,0,0,0-1.32-1.85c-1.89,0-2.37-2-4.07-2.41s-2.16-2.55-2.6-4.25.49-2.82,1.69-3.78a16.794,16.794,0,0,1,1.79-1.12C43.21,147,43,145.78,42,146c-1.35.37-2.15-.64-3.06-1.11-3.17-1.6-3.71-3.74-2.16-7.19a6,6,0,0,1,.73-1.68c1.32-1.4.11-2.35-.76-2.71-1.4-.58-2.64-1.71-4.44-1.39-2.36.41-4.55,0-5.29-2-1.28-3.33-.23-4.51,1.24-7.74,1.65-3.64,3.18-7.35,5-10.93s2.62-7.23,4.48-10.65c1-1.85,1.06-4.15,2.12-6.12a4.56,4.56,0,0,0,.12-3.39c-1.92-5-.9-10.09-.8-15.1.08-3.67,1.64-7.3,2.23-11,.63-3.91,2.68-7.25,4.08-10.82s4-7,6.23-10.4c3.78-5.76,9.26-9.75,14.72-13.72,3.14-2.29,6.87-3.53,10.25-5.38,2.21-1.22,5-.9,6.86-2.75,3,.67,5.63-1.57,8.58-1,2.19.43,3.9-1.36,6.1-1.07a34.11,34.11,0,0,0,6,0c4.08-.19,8,.91,12.06,1.26,3.74.32,7.82.65,11.28,2.76,3.69-.45,6.57,1.94,9.69,3.15a55.83,55.83,0,0,1,13.42,7.27c2.54,1.91,5.56,3.58,7.24,6.78,1.33,2.51,3.84,4.32,5.69,6.59,3.57,4.37,5.58,9.36,7.41,14.48,2,5.55,3.45,11.24,3.07,17.24a19.953,19.953,0,0,1,.12,2,12.635,12.635,0,0,1-.15,1.51,25.847,25.847,0,0,0,0,3,69.931,69.931,0,0,1,0,7.67,58.46,58.46,0,0,1-3.55,15.52c-2.71,7-6.61,13.3-10.62,19.62-3.37,5.32-7.13,10.36-10.76,15.49-1.37,1.93-2.16,4.15-3.67,6-1.06,1.32-.84,3.76.08,5.56a2.82,2.82,0,0,1,.5,1.79c-.65,3.63,1.72,7,1,10.58-.28,1.42,1.27,2.12,1.09,3.6-.22,1.81,1.62,12.77-.07,13.12-5.78,1.19-17.36,1.33-23,3-6.68,2-11.32,1.05-18,3-4.6,1.34-6.43,2.56-11,4-2.5.79-7.66,8.17-10,7-2-1-.2-7.53-1.32-8.05-1.49-.67.07-3-1.68-3.67C83.13,185.77,81.17,181.63,80.84,177.18Z" fill="#22d1a1"/>
      <path id="Path_982" data-name="Path 982" d="M79,63.5l-4-4c2.15-2.62,5.6-3.75,7.36-6.48,1.49-.29,1.79,1.05,2.63,1.42,1.17.51.47,2.35,1.86,2.5,1.11.12,1.85-.92,3.06-1.09,2.25-.32,4.26-1.81,6.75-2,.81-1.75-.14-3.79.58-5.82,1.59.12,3.23-.55,4.7.47s3.2.09,5,.81c0,1.16.41,2.65-.09,3.69-.81,1.67-.49,2.24,1.06,3.07,1.77,1,4,.84,5.48,2.65.67.79,2.76.75,3.94-.6.55-.62,1.17-1.18,1.76-1.77s1.44-.65,1.65,0c.89,2.85,3.76,4,5.2,6.34a1.708,1.708,0,0,1-.16.92c-1.19,1.55-3.94,2.59-3.65,4.38.46,2.79,2.14,5.39,3.39,8a1.92,1.92,0,0,0,2.08,1c1-.09,2,0,3.16,0,.87,3.33-2,6.29-.66,9.49-1.52.9-3,.45-4.46.48s-2.52.66-2.68,2.21a7.34,7.34,0,0,1-2.25,4.57c-1.32,1.31-1,2.57.23,3.75.49.46.92,1,1.42,1.41,1,.93.61,1.68-.24,2.42a14.93,14.93,0,0,1-2.7,1.88c-1.55.82-2.66,2.47-4.07,3.88-.31-.38-.6-.77-.94-1.12-3.12-3.11-3.15-3.15-7.58-1.33-1.54.63-3.19.11-4.88.47V111c-2.45,0-4.75.11-7,0a3.38,3.38,0,0,1-3-3.35q0-.75,0-1.5c-.06-1.73-.18-1.55-1.94-2.65-1.22-.77-2.62-.38-3.91-1.58-2.7-2.51-3-2.3-5.74.27-1.09,1-1.69.95-2.83,0-1.94-1.59-3-4-5.17-5.33-.93-.57-.35-1.35.25-2,1-1.08,2.9-.89,3.31-2.52.46-1.82-1.15-3.2-1.29-5,0-.61-.63-1.34-.63-2.2A2.16,2.16,0,0,0,71.76,83,4.18,4.18,0,0,1,70,82.53c-1.85-1-1.91-.91-2-2.64V72c1.82,0,3.61-.08,5.38,0,1.35.08,1.42-.54,1.7-1.68A12.63,12.63,0,0,1,79,63.5Z" fill="#ebebeb"/>
      <path id="Path_983" data-name="Path 983" d="M83,79.52c-1.59-7.84,7.61-17,16-16.56,10.31.6,16.83,7,16.82,16.47,0,9.7-7.65,16.37-16.78,16.44C91.33,95.93,81.82,89.26,83,79.52Z" fill="url(#radial-gradient-2)"/>
      <path id="Path_984" data-name="Path 984" d="M143,122.3v5a1.94,1.94,0,0,1-2,1.94,7.4,7.4,0,0,1-1.05-.06c-1.6-.19-1.83.55-1.92,2a5.35,5.35,0,0,1-1.34,2.89c-.64.76-.32,1.07.21,1.44,1.71,1.2,1.55,2.32,0,3.49a10.431,10.431,0,0,0-1.42,1.4c-1.06,1.18-2.4,1.39-3.36.22-1.35-1.65-2.46-.94-4.06-.47-3.3,1-3.4.73-3.89,4-.18,1.22-1.09,1.45-1.62.87-1-1.13-2.59.76-3.37-.79-2.06.35-2-.29-1.12-1.88.44-.86.43-2.23-1.54-2.22a6.3,6.3,0,0,1-3.34-1.45,2.93,2.93,0,0,0-2.31-.41c-.84.11-1.35,1.63-2.47.69a11.35,11.35,0,0,1-2.89-3.78c-.52-1,.34-1.13.65-1.41,1.15-1,1.55-2.22.55-3.41s0-4.34-3.08-4.12c-1,.07-1.54-.18-1.5-1.32s0-2.44,0-3.66a2,2,0,0,1,1.68-1.93c2.78-.41,3-1,4.76-4.95.37-.81.34-1.17-.24-1.44C104,111,104.62,109.56,108,108c.9-.42,2.19-1.59,3-2,2-1,1.88.35,2.13,2.33.16,1.32,1.2.72,1.9.89,1,.24,1.19-.9,2.07-1,3.3-.59,3.78-.73,4.11-3.21a2,2,0,0,1,1.87-1.71,3.82,3.82,0,0,1,2.42.65c1,.68,1.8.91,1.66,2.32-.2,2,.78,2.79,2.83,3.09,1.62.24,3,1.73,4.75,0a2,2,0,0,1,2.64.63,14.09,14.09,0,0,0,2.1,2.13c1,.88.83,1.63-.1,2.43-1.2,1-2.11,2.23-.71,3.73a1.91,1.91,0,0,1,.44,1.81c-.5,2.43,1.07,2.26,2.62,2.2A4.45,4.45,0,0,1,143,122.3Z" fill="#ebebeb"/>
      <path id="Path_985" data-name="Path 985" d="M122.25,134.78c-2.87.46-5.45-.7-7.78-3.09-1.8-1.84-2-4.27-3-6.41a2,2,0,0,1-.1-1.44c1-2.91,2.1-5.65,4.77-7.69a12,12,0,0,1,7-2.45c5.5-.35,9.5,3.26,10.71,10.78a2,2,0,0,1-.18,1.18c-.92,2-1.1,4.29-2.84,6C128.08,134.35,127.3,134.78,122.25,134.78Z" fill="url(#radial-gradient-3)"/>
    </g>
  </g>
</svg>
