<svg xmlns="http://www.w3.org/2000/svg" xmlns:xlink="http://www.w3.org/1999/xlink" width="481" height="1010" viewBox="0 0 481 1010">
  <defs>
    <clipPath id="clip-path">
      <rect id="Rectangle_105" data-name="Rectangle 105" width="455" height="984" rx="40" transform="translate(-0.229 0.118)"/>
    </clipPath>
    <filter id="Subtraction_15" x="4.229" y="6.882" width="472.542" height="457.568" filterUnits="userSpaceOnUse">
      <feOffset dy="3" input="SourceAlpha"/>
      <feGaussianBlur stdDeviation="3" result="blur"/>
      <feFlood flood-opacity="0.161"/>
      <feComposite operator="in" in2="blur"/>
      <feComposite in="SourceGraphic"/>
    </filter>
    <filter id="Rectangle_4" x="49" y="132" width="384" height="281" filterUnits="userSpaceOnUse">
      <feOffset dy="3" input="SourceAlpha"/>
      <feGaussianBlur stdDeviation="3" result="blur-2"/>
      <feFlood flood-opacity="0.161"/>
      <feComposite operator="in" in2="blur-2"/>
      <feComposite in="SourceGraphic"/>
    </filter>
    <filter id="Rectangle_44" x="49.077" y="467.485" width="384.058" height="235.092" filterUnits="userSpaceOnUse">
      <feOffset dy="3" input="SourceAlpha"/>
      <feGaussianBlur stdDeviation="3" result="blur-3"/>
      <feFlood flood-opacity="0.161"/>
      <feComposite operator="in" in2="blur-3"/>
      <feComposite in="SourceGraphic"/>
    </filter>
    <filter id="Rectangle_48" x="49" y="818" width="384" height="139" filterUnits="userSpaceOnUse">
      <feOffset dy="3" input="SourceAlpha"/>
      <feGaussianBlur stdDeviation="3" result="blur-4"/>
      <feFlood flood-opacity="0.161"/>
      <feComposite operator="in" in2="blur-4"/>
      <feComposite in="SourceGraphic"/>
    </filter>
    <filter id="Rectangle_56" x="49" y="703" width="384" height="115" filterUnits="userSpaceOnUse">
      <feOffset dy="3" input="SourceAlpha"/>
      <feGaussianBlur stdDeviation="3" result="blur-5"/>
      <feFlood flood-opacity="0.161"/>
      <feComposite operator="in" in2="blur-5"/>
      <feComposite in="SourceGraphic"/>
    </filter>
    <filter id="Rectangle_37" x="4" y="921" width="473" height="88" filterUnits="userSpaceOnUse">
      <feOffset dy="3" input="SourceAlpha"/>
      <feGaussianBlur stdDeviation="3" result="blur-6"/>
      <feFlood flood-opacity="0.671"/>
      <feComposite operator="in" in2="blur-6"/>
      <feComposite in="SourceGraphic"/>
    </filter>
  </defs>
  <g id="dashboard" transform="translate(-580 -251)">
    <rect id="Rectangle_106" data-name="Rectangle 106" width="481" height="1010" rx="48" transform="translate(580 251)" fill="#00246a"/>
    <g id="_7_Dashboard" data-name="7 Dashboard" transform="translate(593.229 263.882)" clip-path="url(#clip-path)">
      <path id="Path_249" data-name="Path 249" d="M0,0H455V984H0Z" transform="translate(-0.229 0.118)" fill="#d4e2ff"/>
      <g transform="matrix(1, 0, 0, 1, -13.23, -12.88)" filter="url(#Subtraction_15)">
        <path id="Subtraction_15-2" data-name="Subtraction 15" d="M-1766,439.568h0V0h454.542V439.407c-49.069-6.462-133.8-10.319-226.665-10.319C-1631.932,429.088-1717.119,433.006-1766,439.568Z" transform="translate(1779.23 12.88)" fill="#5f8fee"/>
      </g>
      <g id="Group_65" data-name="Group 65" transform="translate(43.636 16.97)">
        <text id="King" transform="translate(148.595 32.848)" fill="#fff" font-size="29" font-family="Montserrat-SemiBold, Montserrat" font-weight="600"><tspan x="0" y="0">King</tspan></text>
        <g id="Group_17" data-name="Group 17" transform="translate(320.168)">
          <g id="Ellipse_36" data-name="Ellipse 36" transform="translate(0)" fill="none" stroke="#fff" stroke-width="3">
            <circle cx="22.945" cy="22.945" r="22.945" stroke="none"/>
            <circle cx="22.945" cy="22.945" r="21.445" fill="none"/>
          </g>
          <g id="user" transform="translate(8.644 7.188)">
            <path id="Path_121" data-name="Path 121" d="M32.013,25.505V22a7,7,0,0,0-7-7H11a7,7,0,0,0-7,7v3.5" transform="translate(-4 6.01)" fill="none" stroke="#fff" stroke-linecap="round" stroke-linejoin="round" stroke-width="3"/>
            <circle id="Ellipse_35" data-name="Ellipse 35" cx="7.004" cy="7.004" r="7.004" transform="translate(7.004 0)" stroke-width="3" stroke="#fff" stroke-linecap="round" stroke-linejoin="round" fill="none"/>
          </g>
        </g>
        <g id="Group_18" data-name="Group 18" transform="translate(0 10.303)">
          <line id="Line_4" data-name="Line 4" x2="35.151" transform="translate(0 0)" fill="none" stroke="#fff" stroke-linecap="round" stroke-width="2"/>
          <line id="Line_5" data-name="Line 5" x2="35.151" transform="translate(0 12.121)" fill="none" stroke="#fff" stroke-linecap="round" stroke-width="2"/>
          <line id="Line_6" data-name="Line 6" x2="35.151" transform="translate(0 24.242)" fill="none" stroke="#fff" stroke-linecap="round" stroke-width="2"/>
        </g>
      </g>
      <g transform="matrix(1, 0, 0, 1, -13.23, -12.88)" filter="url(#Rectangle_4)">
        <rect id="Rectangle_4-2" data-name="Rectangle 4" width="366" height="263" rx="10" transform="translate(58 138)" fill="#fff"/>
      </g>
      <g id="Group_34" data-name="Group 34" transform="translate(44.848 460.603)">
        <g transform="matrix(1, 0, 0, 1, -58.08, -473.49)" filter="url(#Rectangle_44)">
          <rect id="Rectangle_44-2" data-name="Rectangle 44" width="366.058" height="217.092" rx="10" transform="translate(58.08 473.49)" fill="#fff"/>
        </g>
      </g>
      <g transform="matrix(1, 0, 0, 1, -13.23, -12.88)" filter="url(#Rectangle_48)">
        <rect id="Rectangle_48-2" data-name="Rectangle 48" width="366" height="121" rx="10" transform="translate(58 824)" fill="#fff"/>
      </g>
      <g transform="matrix(1, 0, 0, 1, -13.23, -12.88)" filter="url(#Rectangle_56)">
        <rect id="Rectangle_56-2" data-name="Rectangle 56" width="366" height="97" rx="10" transform="translate(58 709)" fill="#fff"/>
      </g>
      <g id="Group_28" data-name="Group 28" transform="translate(81.212 145.454)">
        <text id="Streak" transform="translate(49.559 23.664)" font-size="21" font-family="Montserrat-Medium, Montserrat" font-weight="500"><tspan x="0" y="0">Streak</tspan></text>
        <path id="bxs-badge-check" d="M32.486,13.065a6.748,6.748,0,0,0,.059-.884,6.828,6.828,0,0,0-7.673-6.728,6.773,6.773,0,0,0-11.807,0,6.824,6.824,0,0,0-7.671,6.728,6.748,6.748,0,0,0,.059.884,6.773,6.773,0,0,0,0,11.807,6.748,6.748,0,0,0-.059.885,6.829,6.829,0,0,0,7.671,6.728,6.773,6.773,0,0,0,11.807,0,6.833,6.833,0,0,0,7.673-6.728,6.747,6.747,0,0,0-.059-.884,6.773,6.773,0,0,0,0-11.807ZM17.2,26.463l-6.227-6.3,2.424-2.383,3.83,3.879,7.343-7.287,2.389,2.41Z" transform="translate(-2 -2)"/>
      </g>
      <g id="Group_29" data-name="Group 29" transform="translate(249.695 145.454)">
        <text id="Weeky" transform="translate(48.076 23.664)" font-size="21" font-family="Montserrat-Medium, Montserrat" font-weight="500"><tspan x="0" y="0">Weeky</tspan></text>
        <path id="bxs-crown" d="M35.153,2l-8.931,8.931L19.076,2l-7.145,8.931L3,2V25.222H35.153ZM6.572,35.939H31.58a3.573,3.573,0,0,0,3.572-3.572V28.794H3v3.572A3.573,3.573,0,0,0,6.572,35.939Z" transform="translate(-3 -2)" fill="#ff9655"/>
      </g>
      <text id="_70" data-name="70" transform="translate(127.771 219.118)" font-size="33" font-family="Montserrat-Bold, Montserrat" font-weight="700"><tspan x="0" y="0">70</tspan></text>
      <text id="_7" data-name="7" transform="translate(306.771 219.118)" font-size="33" font-family="Montserrat-Bold, Montserrat" font-weight="700"><tspan x="0" y="0">7</tspan></text>
      <g id="Group_41" data-name="Group 41" transform="translate(0 913.933)">
        <g transform="matrix(1, 0, 0, 1, -13.23, -926.82)" filter="url(#Rectangle_37)">
          <rect id="Rectangle_37-2" data-name="Rectangle 37" width="455" height="70" transform="translate(13 927)" fill="#fff"/>
        </g>
        <g id="squaredbot" transform="translate(216.036 16.955)" opacity="0.3">
          <path id="Path_113" data-name="Path 113" d="M-458.911,256.978h-1.955V255.96a7.925,7.925,0,0,0,4.43-3.961,3.35,3.35,0,0,0,3.127-3.17,3.309,3.309,0,0,0-3.257-3.17,11.038,11.038,0,0,0-1.955-2.264l3-7.358a.962.962,0,0,0-.652-1.132,1.2,1.2,0,0,0-1.3.566l-2.737,6.909a13.137,13.137,0,0,0-4.17-1.018h0a8.292,8.292,0,0,0-4.17,1.018l-2.737-6.909a1.12,1.12,0,0,0-1.3-.566.911.911,0,0,0-.565.428.912.912,0,0,0-.087.7l3,7.358a8.7,8.7,0,0,0-1.954,2.264,3.309,3.309,0,0,0-3.258,3.17,3.35,3.35,0,0,0,3.13,3.17,8.364,8.364,0,0,0,4.43,3.961v1.018h-1.955c-2.867,0-5.473,1.811-5.733,4.3-.391,2.83,2.216,5.32,5.473,5.32v2.716a1.939,1.939,0,0,0,.664,1.341,1.939,1.939,0,0,0,1.421.469,1.939,1.939,0,0,0,1.421-.47,1.939,1.939,0,0,0,.664-1.341v-2.6h3.127v2.716a1.939,1.939,0,0,0,.664,1.341,1.939,1.939,0,0,0,1.421.469,1.939,1.939,0,0,0,1.421-.469,1.939,1.939,0,0,0,.664-1.341v-2.716a5.165,5.165,0,0,0,3.911-1.452,5.165,5.165,0,0,0,1.562-3.868C-453.439,258.787-456.045,256.978-458.911,256.978Zm-5.473-2.264h0c-3.515,0-6.385-2.49-6.385-5.547s2.867-5.547,6.385-5.547h0c3.515,0,6.385,2.49,6.385,5.547,0,2.944-2.868,5.434-6.385,5.547Z" transform="translate(475.63 -234.863)" fill="#707070"/>
          <path id="Path_114" data-name="Path 114" d="M-463.087,243.3c-4.495,0-8.013,1.975-8.013,4.259,0,2.389,3.515,4.259,8.013,4.259s8.013-1.975,8.013-4.259S-458.592,243.3-463.087,243.3Zm0,7.377h0c-3.127,0-5.863-1.35-5.863-3.116,0-1.662,2.545-3.116,5.668-3.116h0c3.127,0,5.668,1.35,5.668,3.116C-457.224,249.325-459.959,250.677-463.087,250.677Z" transform="translate(474.328 -233.48)" fill="#707070"/>
        </g>
        <path id="bxs-home" d="M1.773,17.136H4.8V29.379h6.8V19.855h8.158v9.524h6.8V17.136h3.03L15.677,1.5Z" transform="translate(41.863 9.415)" fill="#5f8fee"/>
        <text id="Home" transform="translate(34.286 58.848)" fill="#5f8fee" font-size="14" font-family="Montserrat-Medium, Montserrat" font-weight="500"><tspan x="0" y="0">Home</tspan></text>
      </g>
      <g id="Group_31" data-name="Group 31" transform="translate(81.818 256.362)">
        <line id="Line_8" data-name="Line 8" x2="292.119" transform="translate(0 89.696)" fill="none" stroke="#5f8fee" stroke-linecap="round" stroke-width="2"/>
        <g id="Group_30" data-name="Group 30" transform="translate(13.939)">
          <path id="Rectangle_38" data-name="Rectangle 38" d="M6.061,0h0a6.061,6.061,0,0,1,6.061,6.061V50.909H0V6.061A6.061,6.061,0,0,1,6.061,0Z" transform="translate(0 39.394)" fill="#5f8fee"/>
          <path id="Rectangle_39" data-name="Rectangle 39" d="M6.061,0h0a6.061,6.061,0,0,1,6.061,6.061V90.3H0V6.061A6.061,6.061,0,0,1,6.061,0Z" transform="translate(49.697)" fill="#ff9655"/>
          <path id="Rectangle_40" data-name="Rectangle 40" d="M6.061,0h0a6.061,6.061,0,0,1,6.061,6.061v30.3H0V6.061A6.061,6.061,0,0,1,6.061,0Z" transform="translate(99.393 53.939)" fill="#5f8fee"/>
          <path id="Rectangle_41" data-name="Rectangle 41" d="M6.061,0h0a6.061,6.061,0,0,1,6.061,6.061V70.3H0V6.061A6.061,6.061,0,0,1,6.061,0Z" transform="translate(149.09 20)" fill="#5f8fee"/>
          <path id="Rectangle_42" data-name="Rectangle 42" d="M6.061,0h0a6.061,6.061,0,0,1,6.061,6.061V81.818H0V6.061A6.061,6.061,0,0,1,6.061,0Z" transform="translate(198.787 8.485)" fill="#5f8fee"/>
          <path id="Rectangle_43" data-name="Rectangle 43" d="M6.061,0h0a6.061,6.061,0,0,1,6.061,6.061V26.666H0V6.061A6.061,6.061,0,0,1,6.061,0Z" transform="translate(248.483 63.636)" fill="#5f8fee"/>
        </g>
      </g>
      <text id="s" transform="translate(96.352 366.876)" fill="#5f8fee" font-size="20" font-family="Montserrat-Medium, Montserrat" font-weight="500"><tspan x="0" y="0">s</tspan></text>
      <text id="m" transform="translate(139.983 367.876)" fill="#ff9655" font-size="21" font-family="Montserrat-Medium, Montserrat" font-weight="500"><tspan x="0" y="0">m</tspan></text>
      <text id="t" transform="translate(196.694 366.876)" fill="#5f8fee" font-size="20" font-family="Montserrat-Medium, Montserrat" font-weight="500"><tspan x="0" y="0">t</tspan></text>
      <text id="w" transform="translate(241.1 367.876)" fill="#5f8fee" font-size="21" font-family="Montserrat-Medium, Montserrat" font-weight="500"><tspan x="0" y="0">w</tspan></text>
      <text id="t-2" data-name="t" transform="translate(296.088 366.876)" fill="#5f8fee" font-size="20" font-family="Montserrat-Medium, Montserrat" font-weight="500"><tspan x="0" y="0">t</tspan></text>
      <text id="f" transform="translate(346.45 367.876)" fill="#5f8fee" font-size="21" font-family="Montserrat-Medium, Montserrat" font-weight="500"><tspan x="0" y="0">f</tspan></text>
      <text id="_3x_5_20_x_" data-name="3x + 5 = 20   x = ?" transform="translate(72.121 581.208)" fill="#5f8fee" stroke="#5f8fee" stroke-width="1" font-size="21" font-family="Montserrat-Medium, Montserrat" font-weight="500"><tspan x="0" y="0" xml:space="preserve">3x + 5 = 20   x = ?</tspan></text>
      <g id="bx-analyse" transform="translate(71.515 488.48)">
        <path id="Path_222" data-name="Path 222" d="M2,20.577H5.879a14.3,14.3,0,0,1,1.212-5.8,14.694,14.694,0,0,1,3.32-4.72,15.394,15.394,0,0,1,4.93-3.177A16.389,16.389,0,0,1,27.229,6.8a4.848,4.848,0,0,0,9.68-.159A4.737,4.737,0,0,0,32.06,2a4.937,4.937,0,0,0-3.419,1.347,20.463,20.463,0,0,0-14.807.109A19.326,19.326,0,0,0,7.667,7.43a18.406,18.406,0,0,0-4.15,5.905A17.911,17.911,0,0,0,2,20.577Zm33.7,5.8A14.725,14.725,0,0,1,32.38,31.1a15.436,15.436,0,0,1-4.93,3.177,16.389,16.389,0,0,1-11.888.076,4.735,4.735,0,0,0-4.831-4.485,4.648,4.648,0,1,0,0,9.288,4.937,4.937,0,0,0,3.419-1.347,20.269,20.269,0,0,0,14.8-.108,19.361,19.361,0,0,0,6.167-3.976,18.446,18.446,0,0,0,4.147-5.905,17.888,17.888,0,0,0,1.519-7.241H36.909a14.309,14.309,0,0,1-1.212,5.8Z" transform="translate(-2 -1.999)" fill="#22d1a1"/>
        <path id="Path_223" data-name="Path 223" d="M16.263,7.462a8.8,8.8,0,1,0,8.8,8.8,8.8,8.8,0,0,0-8.8-8.8Zm0,13.724a4.922,4.922,0,1,1,4.922-4.922,4.922,4.922,0,0,1-4.922,4.922Z" transform="translate(3.131 2.315)" fill="#22d1a1"/>
      </g>
      <g id="Group_32" data-name="Group 32" transform="translate(121.211 482.421)">
        <text id="Quiz_for_the_day" data-name="Quiz for the day" transform="translate(-0.44 19.697)" fill="#5f8fee" font-size="21" font-family="Montserrat-SemiBold, Montserrat" font-weight="600"><tspan x="0" y="0">Quiz for the day</tspan></text>
        <text id="Algebra" transform="translate(-0.44 45.697)" fill="#5f8fee" font-size="14" font-family="Montserrat-SemiBold, Montserrat" font-weight="600"><tspan x="0" y="0">Algebra</tspan></text>
      </g>
      <text id="Today" transform="translate(323.771 500.118)" fill="#5f8fee" stroke="#5f8fee" stroke-width="1" font-size="14" font-family="Montserrat-Light, Montserrat" font-weight="300"><tspan x="0" y="0">Today</tspan></text>
      <g id="Group_39" data-name="Group 39" transform="translate(67.878 614.249)">
        <path id="bxs-bolt" d="M8.879,2,5,25.273h9.7V40.788L32.151,13.636H20.515L22.454,2Z" transform="translate(-5 1.636)" fill="#ff9655"/>
        <text id="_750_1000" data-name="750/1000" transform="translate(36.969 14)" fill="#5f8fee" stroke="#5f8fee" stroke-width="1" font-size="14" font-family="Montserrat-Light, Montserrat" font-weight="300"><tspan x="0" y="0">750/1000</tspan></text>
        <text id="Potential" transform="translate(36.969 33.394)" fill="#5f8fee" stroke="#5f8fee" stroke-width="1" font-size="14" font-family="Montserrat-SemiBold, Montserrat" font-weight="600"><tspan x="0" y="0">Potential</tspan></text>
      </g>
      <g id="Group_81" data-name="Group 81" transform="translate(67.878 723.339)">
        <path id="bxs-bolt-2" data-name="bxs-bolt" d="M8.879,2,5,25.273h9.7V40.788L32.151,13.636H20.515L22.454,2Z" transform="translate(-5 1.636)" fill="#ff9655"/>
        <text id="_750_1000-2" data-name="750/1000" transform="translate(36.969 14)" fill="#5f8fee" stroke="#5f8fee" stroke-width="1" font-size="14" font-family="Montserrat-Light, Montserrat" font-weight="300"><tspan x="0" y="0">750/1000</tspan></text>
        <text id="Potential-2" data-name="Potential" transform="translate(36.969 33.394)" fill="#5f8fee" stroke="#5f8fee" stroke-width="1" font-size="14" font-family="Montserrat-SemiBold, Montserrat" font-weight="600"><tspan x="0" y="0">Potential</tspan></text>
      </g>
      <path id="bx-dots-vertical-rounded" d="M12.424,11.273A2.424,2.424,0,1,0,14.848,13.7,2.424,2.424,0,0,0,12.424,11.273Zm0-7.273a2.424,2.424,0,1,0,2.424,2.424A2.424,2.424,0,0,0,12.424,4Zm0,14.545a2.424,2.424,0,1,0,2.424,2.424A2.424,2.424,0,0,0,12.424,18.545Z" transform="translate(353.634 622.37)" fill="#632551"/>
      <g id="Group_80" data-name="Group 80" transform="translate(67.877 830.297)">
        <text id="Algebra-2" data-name="Algebra" transform="translate(52.894 19.82)" fill="#5f8fee" font-size="21" font-family="Montserrat-SemiBold, Montserrat" font-weight="600"><tspan x="0" y="0">Algebra</tspan></text>
        <g id="Group_40" data-name="Group 40" transform="translate(53.334 32.121)">
          <rect id="Rectangle_49" data-name="Rectangle 49" width="196.008" height="12.121" rx="5" transform="translate(0 3.03)" fill="rgba(95,143,238,0.4)"/>
          <rect id="Rectangle_50" data-name="Rectangle 50" width="151" height="12" rx="5" transform="translate(-0.44 2.7)" fill="#5f8fee"/>
          <text id="_80_" data-name="80%" transform="translate(214.544 14)" fill="#632652" stroke="#5f8fee" stroke-width="1" font-size="14" font-family="Montserrat-Light, Montserrat" font-weight="300"><tspan x="0" y="0">80%</tspan></text>
        </g>
        <g id="bxs-layer" transform="translate(0 3.637)">
          <path id="Path_224" data-name="Path 224" d="M40.93,14.155,25.23,2.806a4.345,4.345,0,0,0-5.053.006L4.482,14.16a4.309,4.309,0,0,0,0,6.97l15.7,11.351a4.345,4.345,0,0,0,5.053-.006L40.93,21.13h0a4.309,4.309,0,0,0,0-6.972Z" transform="translate(-2.707 -1.999)" fill="#22d1a1"/>
          <path id="Path_225" data-name="Path 225" d="M22.219,25.845l-15.56-11.2L3.013,17.326l16.7,12.017a4.333,4.333,0,0,0,5.05,0l16.945-12.2-3.7-2.653Z" transform="translate(-2.355 12.396)" fill="#22d1a1"/>
        </g>
        <text id="Novice" transform="translate(55.894 60.82)" fill="none" stroke="#5f8fee" stroke-width="1" font-size="9" font-family="Montserrat-Thin, Montserrat" font-weight="200"><tspan x="0" y="0">Novice</tspan></text>
        <text id="Master" transform="translate(216.894 60.82)" fill="none" stroke="#5f8fee" stroke-width="1" font-size="9" font-family="Montserrat-Thin, Montserrat" font-weight="200"><tspan x="0" y="0">Master</tspan></text>
      </g>
      <g id="Group_145" data-name="Group 145" transform="translate(385.452 935.751)" opacity="0.3">
        <rect id="Rectangle_100" data-name="Rectangle 100" width="3" height="15" rx="1.5" transform="translate(0.319 13.367)" fill="#707070"/>
        <rect id="Rectangle_101" data-name="Rectangle 101" width="4" height="25" rx="1.5" transform="translate(7.319 3.367)" fill="#707070"/>
        <rect id="Rectangle_102" data-name="Rectangle 102" width="4" height="22" rx="1.5" transform="translate(14.319 6.367)" fill="#707070"/>
        <rect id="Rectangle_103" data-name="Rectangle 103" width="4" height="28" rx="1.5" transform="translate(21.319 0.367)" fill="#707070"/>
      </g>
    </g>
  </g>
</svg>
