<svg xmlns="http://www.w3.org/2000/svg" xmlns:xlink="http://www.w3.org/1999/xlink" width="342" height="101" viewBox="0 0 342 101">
  <defs>
    <linearGradient id="linear-gradient" x1="0.915" y1="6.614" x2="-0.383" y2="5.945" gradientUnits="objectBoundingBox">
      <stop offset="0" stop-color="#00a0ff"/>
      <stop offset="0.007" stop-color="#00a1ff"/>
      <stop offset="0.26" stop-color="#00beff"/>
      <stop offset="0.512" stop-color="#00d2ff"/>
      <stop offset="0.76" stop-color="#00dfff"/>
      <stop offset="1" stop-color="#00e3ff"/>
    </linearGradient>
    <linearGradient id="linear-gradient-2" x1="1.076" y1="17.098" x2="-1.305" y2="17.098" gradientUnits="objectBoundingBox">
      <stop offset="0" stop-color="#ffe000"/>
      <stop offset="0.409" stop-color="#ffbd00"/>
      <stop offset="0.775" stop-color="orange"/>
      <stop offset="1" stop-color="#ff9c00"/>
    </linearGradient>
    <linearGradient id="linear-gradient-3" x1="0.862" y1="10.863" x2="-0.501" y2="9.093" gradientUnits="objectBoundingBox">
      <stop offset="0" stop-color="#ff3a44"/>
      <stop offset="1" stop-color="#c31162"/>
    </linearGradient>
    <linearGradient id="linear-gradient-4" x1="-0.188" y1="13.583" x2="0.421" y2="12.793" gradientUnits="objectBoundingBox">
      <stop offset="0" stop-color="#32a071"/>
      <stop offset="0.068" stop-color="#2da771"/>
      <stop offset="0.476" stop-color="#15cf74"/>
      <stop offset="0.801" stop-color="#06e775"/>
      <stop offset="1" stop-color="#00f076"/>
    </linearGradient>
  </defs>
  <g id="Group_11" data-name="Group 11" transform="translate(-10 -10)">
    <rect id="Rectangle_8" data-name="Rectangle 8" width="342" height="101" rx="5" transform="translate(10 10)"/>
    <g id="Group_8" data-name="Group 8" transform="translate(114.693 27.383)">
      <path id="Path_8" data-name="Path 8" d="M66.71,25.416a6.857,6.857,0,0,1-1.886,5.071,7.362,7.362,0,0,1-5.58,2.248A7.825,7.825,0,0,1,51.352,24.8a7.825,7.825,0,0,1,7.891-7.934,7.864,7.864,0,0,1,3.119.635,6.249,6.249,0,0,1,2.375,1.7L63.4,20.535a5.138,5.138,0,0,0-4.16-1.8,5.874,5.874,0,0,0-5.9,6.066,5.975,5.975,0,0,0,10.142,4.372,4.79,4.79,0,0,0,1.273-3.079H59.243V24.271h7.362A6.473,6.473,0,0,1,66.71,25.416Z" transform="translate(-51.352 -16.866)" fill="#fff" stroke="#fff" stroke-miterlimit="10" stroke-width="0.2"/>
      <path id="Path_9" data-name="Path 9" d="M67.394,18.866H60.474v4.818h6.238v1.823H60.474v4.818h6.919V32.19H58.525V17h8.869Z" transform="translate(-40.365 -16.661)" fill="#fff" stroke="#fff" stroke-miterlimit="10" stroke-width="0.2"/>
      <path id="Path_10" data-name="Path 10" d="M69.027,32.19H67.073V18.866H62.832V17H73.27v1.866H69.027Z" transform="translate(-33.768 -16.661)" fill="#fff" stroke="#fff" stroke-miterlimit="10" stroke-width="0.2"/>
      <path id="Path_11" data-name="Path 11" d="M69.938,32.19V17h1.949V32.19Z" transform="translate(-22.883 -16.661)" fill="#fff" stroke="#fff" stroke-miterlimit="10" stroke-width="0.2"/>
      <path id="Path_12" data-name="Path 12" d="M77.876,32.19H75.924V18.866H71.681V17H82.119v1.866H77.876Z" transform="translate(-20.213 -16.661)" fill="#fff" stroke="#fff" stroke-miterlimit="10" stroke-width="0.2"/>
      <path id="Path_13" data-name="Path 13" d="M91.7,30.434a7.888,7.888,0,0,1-11.137,0A7.768,7.768,0,0,1,78.326,24.8a7.768,7.768,0,0,1,2.238-5.633,7.863,7.863,0,0,1,11.127.01A7.766,7.766,0,0,1,93.939,24.8,7.778,7.778,0,0,1,91.7,30.434ZM82,29.16a5.843,5.843,0,0,0,8.253,0,5.945,5.945,0,0,0,1.689-4.36,5.945,5.945,0,0,0-1.689-4.36,5.843,5.843,0,0,0-8.253,0,5.954,5.954,0,0,0-1.686,4.36A5.954,5.954,0,0,0,82,29.16Z" transform="translate(-10.035 -16.866)" fill="#fff" stroke="#fff" stroke-miterlimit="10" stroke-width="0.2"/>
      <path id="Path_14" data-name="Path 14" d="M85.575,32.19V17h2.377l7.383,11.816h.084l-.084-2.927V17h1.952V32.19H95.251L87.527,19.8h-.084l.084,2.929V32.19Z" transform="translate(1.069 -16.661)" fill="#fff" stroke="#fff" stroke-miterlimit="10" stroke-width="0.2"/>
    </g>
    <path id="Path_15" data-name="Path 15" d="M119.637,38.959a10.768,10.768,0,1,0,10.808,10.768A10.613,10.613,0,0,0,119.637,38.959Zm0,17.292a6.229,6.229,0,0,1-6.079-6.524,6.093,6.093,0,1,1,12.155,0A6.227,6.227,0,0,1,119.637,56.251ZM96.059,38.959a10.768,10.768,0,1,0,10.808,10.768A10.614,10.614,0,0,0,96.059,38.959Zm0,17.292a6.229,6.229,0,0,1-6.079-6.524,6.093,6.093,0,1,1,12.155,0A6.229,6.229,0,0,1,96.059,56.251ZM68.01,42.263V46.83h10.93a9.533,9.533,0,0,1-2.486,5.75,11.192,11.192,0,0,1-8.443,3.344,12.155,12.155,0,0,1,0-24.307,11.646,11.646,0,0,1,8.238,3.263l3.223-3.223a15.938,15.938,0,0,0-11.461-4.61A16.958,16.958,0,0,0,51.042,43.772,16.956,16.956,0,0,0,68.01,60.494,15.282,15.282,0,0,0,79.674,55.8c3.018-3.018,3.957-7.259,3.957-10.687a14.757,14.757,0,0,0-.246-2.853ZM182.718,45.81c-.9-2.405-3.631-6.851-9.218-6.851-5.547,0-10.155,4.362-10.155,10.768a10.537,10.537,0,0,0,10.687,10.768A10.709,10.709,0,0,0,183,55.722l-3.671-2.448a6.151,6.151,0,0,1-5.3,2.977,5.481,5.481,0,0,1-5.223-3.261l14.4-5.957ZM168.034,49.4a5.907,5.907,0,0,1,5.628-6.281,4.165,4.165,0,0,1,4,2.284Zm-11.7,10.441h4.729V28.189H156.33Zm-7.752-18.477h-.162a7.463,7.463,0,0,0-5.669-2.405,10.777,10.777,0,0,0,0,21.535,7.336,7.336,0,0,0,5.669-2.448h.162V59.6c0,4.119-2.2,6.322-5.75,6.322a5.959,5.959,0,0,1-5.426-3.836L133.283,63.8a10.261,10.261,0,0,0,9.545,6.362c5.547,0,10.238-3.263,10.238-11.216V39.61h-4.489Zm-5.423,14.887a6.178,6.178,0,0,1-6-6.484c0-3.793,2.732-6.567,6-6.567,3.223,0,5.75,2.775,5.75,6.567C148.9,53.519,146.377,56.251,143.155,56.251Zm61.727-28.059H193.562V59.841h4.722V47.85h6.6c5.236,0,10.383-3.793,10.383-9.831S210.117,28.191,204.881,28.191ZM205,43.445h-6.719V32.6H205a5.425,5.425,0,1,1,0,10.849ZM234.2,38.9c-3.42,0-6.965,1.506-8.431,4.843l4.2,1.752a4.475,4.475,0,0,1,4.317-2.322c2.443,0,4.927,1.466,4.967,4.074v.324a10.45,10.45,0,0,0-4.927-1.22c-4.519,0-9.122,2.484-9.122,7.124,0,4.236,3.706,6.965,7.859,6.965a6.666,6.666,0,0,0,6.028-3.1h.162v2.443h4.56V47.653C243.807,42.035,239.614,38.9,234.2,38.9Zm-.57,17.345c-1.549,0-3.706-.772-3.706-2.686,0-2.443,2.686-3.38,5.008-3.38a8.428,8.428,0,0,1,4.317,1.058A5.726,5.726,0,0,1,233.629,56.246ZM260.42,39.592,255,53.314h-.162l-5.62-13.722h-5.089l8.428,19.178-4.805,10.669h4.927l12.99-29.847ZM217.869,59.841h4.724V28.191h-4.724Z" transform="translate(62.866 26.112)" fill="#fff"/>
    <g id="google-play" transform="translate(35.249 28.078)">
      <path id="Path_16" data-name="Path 16" d="M21.143,17.65a5.081,5.081,0,0,0-1.17,3.557V77.2a5.077,5.077,0,0,0,1.17,3.557l.187.182L52.7,49.573v-.739L21.33,17.465Z" transform="translate(-19.973 -16.643)" fill="url(#linear-gradient)"/>
      <path id="Path_17" data-name="Path 17" d="M43.354,47.383,32.9,36.922v-.739L43.357,25.724l.235.137L55.98,32.9c3.537,2.01,3.537,5.3,0,7.309L43.592,47.246Z" transform="translate(-0.175 -3.993)" fill="url(#linear-gradient-2)"/>
      <path id="Path_18" data-name="Path 18" d="M62.682,40.7,51.988,30,20.435,61.554c1.167,1.235,3.094,1.387,5.264.154L62.682,40.7" transform="translate(-19.265 2.559)" fill="url(#linear-gradient-3)"/>
      <path id="Path_19" data-name="Path 19" d="M62.682,39.006,25.7,17.992c-2.17-1.233-4.1-1.081-5.264.154L51.988,49.7Z" transform="translate(-19.265 -17.14)" fill="url(#linear-gradient-4)"/>
      <g id="Group_9" data-name="Group 9" transform="translate(0 43.018)">
        <path id="Path_20" data-name="Path 20" d="M62.447,34.132,25.7,55.011c-2.056,1.17-3.894,1.091-5.074.028h0l-.19.187h0l.187.185,0,0c1.18,1.063,3.018,1.142,5.074-.028L62.682,34.367Z" transform="translate(-19.265 -34.132)" opacity="0.2"/>
        <path id="Path_21" data-name="Path 21" d="M21.143,44.47a5.077,5.077,0,0,1-1.17-3.557v.372a5.07,5.07,0,0,0,1.17,3.555l.19-.187Z" transform="translate(-19.973 -23.745)" opacity="0.12"/>
      </g>
      <path id="Path_22" data-name="Path 22" d="M49.652,33.287,37.029,40.46l.235.235,12.388-7.038c1.767-1.005,2.653-2.329,2.653-3.656h0A4.711,4.711,0,0,1,49.652,33.287Z" transform="translate(6.152 2.559)" opacity="0.12"/>
      <path id="Path_23" data-name="Path 23" d="M26.406,18.362,75.778,46.414A4.711,4.711,0,0,1,78.431,49.7h0c0-1.324-.884-2.651-2.653-3.656L26.406,17.992c-3.539-2.01-6.433-.339-6.433,3.712v.372C19.973,18.023,22.867,16.352,26.406,18.362Z" transform="translate(-19.973 -17.14)" fill="#fff" opacity="0.25"/>
    </g>
  </g>
</svg>
