<svg xmlns="http://www.w3.org/2000/svg" xmlns:xlink="http://www.w3.org/1999/xlink" width="306.81" height="286.787" viewBox="0 0 306.81 286.787">
  <defs>
    <radialGradient id="radial-gradient" cx="0.542" cy="0.387" r="0.5" gradientUnits="objectBoundingBox">
      <stop offset="0" stop-color="#304a7b"/>
      <stop offset="0.565" stop-color="#22d1a1"/>
      <stop offset="1" stop-color="#18253e"/>
    </radialGradient>
    <radialGradient id="radial-gradient-2" cx="0.5" cy="0.5" r="0.698" gradientTransform="translate(0.205 0.216) scale(0.59 0.568)" gradientUnits="objectBoundingBox">
      <stop offset="0" stop-color="#f8f8f8"/>
      <stop offset="1" stop-color="#6583bb"/>
    </radialGradient>
  </defs>
  <g id="Group_544" data-name="Group 544" transform="translate(-1433.995 -3868)">
    <g id="Group_534" data-name="Group 534" transform="translate(8918.79 1425)" opacity="0.5">
      <circle id="Ellipse_134" data-name="Ellipse 134" cx="142.399" cy="142.399" r="142.399" transform="translate(-7462.79 2443.002)" fill="url(#radial-gradient)"/>
      <path id="Subtraction_28" data-name="Subtraction 28" d="M125.617,250.2l-.017-.013c33.754-32.213,44.5-71.86,28.037-103.469a2.925,2.925,0,0,0-2.855-1.587c-3.027,0-7.641,2.607-12.531,5.366l-.552.308c-4.484,2.533-10.064,5.685-13.867,5.685a4.239,4.239,0,0,1-3.769-1.824c-3.579-5.243.414-22.547,12.22-52.9C122,84.511,112.992,76.812,103.048,76.812a20.129,20.129,0,0,0-5.744.867c-4.027-5.625-1.992-9.855-.509-12.942,1-2.083,1.777-3.708.509-5.021A7.918,7.918,0,0,0,91.63,56.9a8.448,8.448,0,0,0-5.769,2.807c.034-.091,3.864-10.056,0-14.456-4.019-4.6-9.038-6.533-14.35-8.579C63.9,33.735,56.047,30.7,51.183,19.255a2.592,2.592,0,0,0-.819-.125c-2.027,0-4.933,1.973-7.218,3.689-.371.278-.733.558-1.087.83l-.63.483C39.8,25.4,38.377,26.5,37.825,26.5a.355.355,0,0,1-.121-.019c-3.657-1.522-6.321-6.511-8.667-10.914-1.837-3.452-3.424-6.423-5.088-6.929A120,120,0,0,0,0,3.745,143.049,143.049,0,0,1,32.573,0a141.5,141.5,0,0,1,100.7,41.712,141.516,141.516,0,0,1,41.706,100.7A142.316,142.316,0,0,1,125.617,250.2Z" transform="translate(-7352.966 2443)" fill="#304a7b" opacity="0.31"/>
    </g>
    <path id="Path_997" data-name="Path 997" d="M-8490.606,400.73s9.914-35.308,43.911-29.854,35.417,39.9,35.417,39.9,34.2,2.756,37.509,33.356-31.415,36.31-31.415,36.31-4.4,10.552-22.358,14.069-49.461,0-49.461,0-7.814,15.162-17.938,16.047S-8511,494.512-8511,494.512s-13.773,28.361-35.135,24.256-29.98-38.325-29.98-38.325-8.414-1.46-9.316-5.9c-.426-2.1-34.673,16.789-40.372-21.089,1.34-33.462,39.728-24.119,39.728-24.119s2.837-25.871,30.3-26.916c9.89-.376,11.643-21.493,29.077-24.143C-8506.646,374.519-8490.606,400.73-8490.606,400.73Z" transform="translate(10061.304 3634.097)" stroke="#5f8fee" stroke-width="3" fill="url(#radial-gradient-2)"/>
  </g>
</svg>
