<svg xmlns="http://www.w3.org/2000/svg" xmlns:xlink="http://www.w3.org/1999/xlink" width="481" height="1016" viewBox="0 0 481 1016">
  <defs>
    <clipPath id="clip-path">
      <rect id="Rectangle_121" data-name="Rectangle 121" width="455" height="990" rx="40" transform="translate(0.55 -1.098)"/>
    </clipPath>
    <clipPath id="clip-path-2">
      <rect id="Rectangle_119" data-name="Rectangle 119" width="28.587" height="27.684" fill="none"/>
    </clipPath>
    <filter id="Rectangle_36" x="49" y="637" width="385" height="91" filterUnits="userSpaceOnUse">
      <feOffset dy="3" input="SourceAlpha"/>
      <feGaussianBlur stdDeviation="3" result="blur"/>
      <feFlood flood-opacity="0.161"/>
      <feComposite operator="in" in2="blur"/>
      <feComposite in="SourceGraphic"/>
    </filter>
    <filter id="Rectangle_1" x="49" y="741" width="385" height="91" filterUnits="userSpaceOnUse">
      <feOffset dy="3" input="SourceAlpha"/>
      <feGaussianBlur stdDeviation="3" result="blur-2"/>
      <feFlood flood-opacity="0.161"/>
      <feComposite operator="in" in2="blur-2"/>
      <feComposite in="SourceGraphic"/>
    </filter>
    <clipPath id="clip-path-3">
      <rect id="Rectangle_120" data-name="Rectangle 120" width="72" height="74" transform="translate(0.142 -0.357)" fill="none"/>
    </clipPath>
    <filter id="Ellipse_19" x="196" y="843" width="90" height="92" filterUnits="userSpaceOnUse">
      <feOffset dy="3" input="SourceAlpha"/>
      <feGaussianBlur stdDeviation="3" result="blur-3"/>
      <feFlood flood-opacity="0.161"/>
      <feComposite operator="in" in2="blur-3"/>
      <feComposite in="SourceGraphic"/>
    </filter>
  </defs>
  <g id="dashboard" transform="translate(-580 -248)">
    <rect id="Rectangle_106" data-name="Rectangle 106" width="481" height="1016" rx="48" transform="translate(580 248)" fill="#00246a"/>
    <g id="_3_Onboarding_N" data-name="3 Onboarding N" transform="translate(592.45 262.098)" clip-path="url(#clip-path)">
      <rect id="Rectangle_118" data-name="Rectangle 118" width="455" height="990" transform="translate(0.55 -1.098)" fill="#fff"/>
      <g id="squaredbot" transform="translate(201.747 277.344)">
        <path id="Path_113" data-name="Path 113" d="M-436.264,294.792h-4.6v-2.761a19.867,19.867,0,0,0,10.432-10.739,8.605,8.605,0,0,0,7.364-8.592,8.425,8.425,0,0,0-7.671-8.592,29.184,29.184,0,0,0-4.6-6.137l7.056-19.95a2.69,2.69,0,0,0-1.534-3.068,2.69,2.69,0,0,0-3.068,1.534l-6.447,18.718a27.659,27.659,0,0,0-9.819-2.761h0a17.517,17.517,0,0,0-9.819,2.761l-6.447-18.718a2.533,2.533,0,0,0-3.068-1.534,2.533,2.533,0,0,0-1.534,3.068l7.056,19.95a22.991,22.991,0,0,0-4.6,6.135,8.425,8.425,0,0,0-7.671,8.592,8.605,8.605,0,0,0,7.364,8.592,20.966,20.966,0,0,0,10.432,10.739v2.761h-4.6c-6.75,0-12.887,4.91-13.5,11.66a12.986,12.986,0,0,0,3.223,10.088,12.986,12.986,0,0,0,9.664,4.333v7.365a4.847,4.847,0,0,0,1.419,3.491,4.846,4.846,0,0,0,3.491,1.419,4.846,4.846,0,0,0,3.491-1.419,4.847,4.847,0,0,0,1.419-3.491V321.18h7.365v7.365a4.846,4.846,0,0,0,1.419,3.491,4.847,4.847,0,0,0,3.491,1.419,4.846,4.846,0,0,0,3.491-1.419,4.846,4.846,0,0,0,1.419-3.491V321.18a13.162,13.162,0,0,0,9.6-4.39,13.162,13.162,0,0,0,3.287-10.031A13.354,13.354,0,0,0-436.264,294.792Zm-12.887-6.137h0a15.06,15.06,0,0,1-15.036-15.035,15.06,15.06,0,0,1,15.036-15.036h0a15.06,15.06,0,0,1,15.036,15.036C-434.113,281.6-440.865,288.348-449.151,288.655Z" transform="translate(475.625 -234.853)" fill="#5f8fee"/>
        <path id="Path_114" data-name="Path 114" d="M-458.519,243.3A12.637,12.637,0,0,0-471.1,255.881a12.443,12.443,0,0,0,3.644,8.937,12.443,12.443,0,0,0,8.937,3.644,12.637,12.637,0,0,0,12.581-12.581A12.637,12.637,0,0,0-458.519,243.3Zm0,21.786h0a9.232,9.232,0,0,1-9.205-9.205,9.172,9.172,0,0,1,8.9-9.205h0a8.976,8.976,0,0,1,6.379,2.737,8.976,8.976,0,0,1,2.52,6.468,8.382,8.382,0,0,1-2.213,6.546,8.382,8.382,0,0,1-6.379,2.659Z" transform="translate(484.995 -217.421)" fill="#5f8fee"/>
      </g>
      <path id="Subtraction_8" data-name="Subtraction 8" d="M1.91,393.824h0a982.874,982.874,0,0,1-.168-119.753c1.361-20.975,3.549-41,6.5-59.5a441.879,441.879,0,0,1,12.4-55.745,286.253,286.253,0,0,1,19.428-49.373,205.436,205.436,0,0,1,12.7-21.477,167.871,167.871,0,0,1,14.886-18.9,143.127,143.127,0,0,1,17.207-16,129.577,129.577,0,0,1,41.951-21.966,144.828,144.828,0,0,1,25.025-5.315C350.837,1.265,359.531.04,359.8,0a61.331,61.331,0,0,0-1.243,10.668,95.354,95.354,0,0,0,2.9,27.014c5.034,19.886,19.175,48.716,57.951,73.138,10.34,6.511,23.036,10.34,38.818,11.726,4.389.384,9.092.579,13.978.579,20.2,0,42.533-3.323,63.674-6.727q2.3-.365,4.585-.741l.378-.061.184-.029h.019c20.338-3.292,39.544-6.4,55.464-6.4,3.05,0,5.935.122,8.579.349a50.474,50.474,0,0,1,16.257,3.794,25.876,25.876,0,0,1,11.2,9.038c6.979,10.143,7.1,26.519.381,50.059a41.141,41.141,0,0,1-4.894,10.745,55.782,55.782,0,0,1-8.1,9.841c-6.2,6.062-14.534,11.844-24.781,17.186a238.992,238.992,0,0,1-34.48,14.233c-12.3,4.106-26.462,8.046-42.09,11.709-26.917,6.309-59.2,12.071-98.681,17.614-34.733,4.877-70,8.911-104.1,12.811-46.45,5.312-90.323,10.33-122.524,16.453-17.161,3.261-29.925,6.615-39.006,10.252a48.245,48.245,0,0,0-11.477,6.153,13.249,13.249,0,0,0-5.188,7.032c-.672,2.8.136,5.8,2.4,8.94,2.338,3.241,6.313,6.734,11.813,10.384-56.943,5.614-110.177,29.791-149.9,68.08Z" transform="matrix(-0.829, -0.559, 0.559, -0.829, 160.679, 1282.853)" fill="#5f8fee" opacity="0.19"/>
      <g id="Group_69" data-name="Group 69" transform="translate(43.755 27.041)">
        <g id="Symbol_3_5" data-name="Symbol 3 – 5" clip-path="url(#clip-path-2)">
          <g id="Group_4" data-name="Group 4">
            <line id="Line_1" data-name="Line 1" x1="13.842" y2="13.842" fill="none" stroke="#5f8fee" stroke-linecap="round" stroke-width="3"/>
            <line id="Line_2" data-name="Line 2" x1="13.842" y1="13.842" transform="translate(0 13.842)" fill="none" stroke="#5f8fee" stroke-linecap="round" stroke-width="3"/>
          </g>
          <line id="Line_3" data-name="Line 3" x2="27.979" transform="translate(0.608 13.989)" fill="none" stroke="#5f8fee" stroke-linecap="round" stroke-width="3"/>
        </g>
      </g>
      <g id="Group_22" data-name="Group 22" transform="translate(108.836 382.463)">
        <path id="Union_1" data-name="Union 1" d="M24.329,132.15A24.329,24.329,0,0,1,0,107.82V43.712A24.329,24.329,0,0,1,24.329,19.383h85.015c3.8-9.639,10.413-25.862,8.287-16.644A23.82,23.82,0,0,0,119.4,19.383h94.7a24.329,24.329,0,0,1,24.329,24.329V107.82A24.329,24.329,0,0,1,214.1,132.15Z" transform="translate(0 -0.001)" fill="#5f8fee"/>
        <g id="Group_605" data-name="Group 605" transform="translate(31.672 29.935)">
          <text id="I_keep_track_of_your_" data-name="I keep track of your " transform="translate(16.473 13)" fill="#fff" font-size="13" font-family="Montserrat-Medium, Montserrat" font-weight="500"><tspan x="0" y="0">I keep track of your </tspan></text>
          <text id="progress_and_help_you_" data-name="progress and help you " transform="translate(5.058 31.247)" fill="#fff" font-size="13" font-family="Montserrat-Medium, Montserrat" font-weight="500"><tspan x="0" y="0">progress and help you </tspan></text>
          <text id="stay_motivated_through_" data-name="stay motivated through " transform="translate(0 49.494)" fill="#fff" font-size="13" font-family="Montserrat-Medium, Montserrat" font-weight="500"><tspan x="0" y="0">stay motivated through </tspan></text>
          <text id="the_entire_learning_" data-name="the entire learning " transform="translate(18.532 67.741)" fill="#fff" font-size="13" font-family="Montserrat-Medium, Montserrat" font-weight="500"><tspan x="0" y="0">the entire learning </tspan></text>
          <text id="process." transform="translate(57.478 84.988)" fill="#fff" font-size="12" font-family="Montserrat-Medium, Montserrat" font-weight="500"><tspan x="0" y="0">process.</tspan></text>
        </g>
      </g>
      <g transform="matrix(1, 0, 0, 1, -12.45, -14.1)" filter="url(#Rectangle_36)">
        <rect id="Rectangle_36-2" data-name="Rectangle 36" width="367" height="73" rx="30" transform="translate(58 643)" fill="#5f8fee"/>
      </g>
      <text id="SIGN_UP_WITH_FACEBOOK" data-name="SIGN UP WITH FACEBOOK" transform="translate(159.108 669.909)" fill="#fff" font-size="13" font-family="Montserrat-Medium, Montserrat" font-weight="500"><tspan x="0" y="0">SIGN UP WITH FACEBOOK</tspan></text>
      <path id="bxl-facebook-square" d="M23.68,3H4.216A1.216,1.216,0,0,0,3,4.216V23.68A1.216,1.216,0,0,0,4.216,24.9H14.7V16.43H11.852V13.115H14.7V10.682a3.985,3.985,0,0,1,4.258-4.37,23.791,23.791,0,0,1,2.549.13V9.386H19.757c-1.372,0-1.64.654-1.64,1.612v2.111H21.4l-.426,3.315h-2.86V24.9H23.68A1.216,1.216,0,0,0,24.9,23.68V4.216A1.216,1.216,0,0,0,23.68,3Z" transform="translate(106.445 651.476)" fill="#fff"/>
      <g transform="matrix(1, 0, 0, 1, -12.45, -14.1)" filter="url(#Rectangle_1)">
        <rect id="Rectangle_1-2" data-name="Rectangle 1" width="367" height="73" rx="30" transform="translate(58 747)" fill="#5f8fee"/>
      </g>
      <text id="SIGN_UP_WITH_GOOGLE" data-name="SIGN UP WITH GOOGLE" transform="translate(169.224 772.092)" fill="#fff" font-size="13" font-family="Montserrat-Medium, Montserrat" font-weight="500"><tspan x="0" y="0">SIGN UP WITH GOOGLE</tspan></text>
      <path id="google" d="M24.02,11.936H13.89v4.2H19.72c-.545,2.668-2.814,4.2-5.829,4.2a6.423,6.423,0,1,1,0-12.845,6.284,6.284,0,0,1,4,1.434L21.055,5.76A10.862,10.862,0,1,0,13.89,24.78c5.434,0,10.375-3.952,10.375-10.868a9.082,9.082,0,0,0-.246-1.976Z" transform="translate(116.154 754.831)" fill="#fff"/>
      <g id="Symbol_1_5" data-name="Symbol 1 – 5" transform="translate(192.409 835.259)" clip-path="url(#clip-path-3)">
        <g transform="matrix(1, 0, 0, 1, -204.86, -849.36)" filter="url(#Ellipse_19)">
          <ellipse id="Ellipse_19-2" data-name="Ellipse 19" cx="36" cy="37" rx="36" ry="37" transform="translate(205 849)" fill="#ff9655"/>
        </g>
        <g id="Group_2" data-name="Group 2" transform="translate(28.72 23.123)">
          <line id="Line_1-2" data-name="Line 1" x2="13.842" y2="13.842" transform="translate(0 0)" fill="none" stroke="#fff" stroke-linecap="round" stroke-width="3"/>
          <line id="Line_2-2" data-name="Line 2" y1="13.842" x2="13.842" transform="translate(0 13.842)" fill="none" stroke="#fff" stroke-linecap="round" stroke-width="3"/>
        </g>
      </g>
      <g id="Group_604" data-name="Group 604" transform="translate(201.731 18.286)">
        <path id="Path_999" data-name="Path 999" d="M710.022,196.923c0,10.064-7.87,18.56-18.65,21.259a1.274,1.274,0,0,1-1.345-1.979,12.667,12.667,0,0,0,2.281-7.44c0-5.961-3.7-10.788-8.272-10.788s-8.272,4.829-8.272,10.788a12.666,12.666,0,0,0,2.282,7.441,1.275,1.275,0,0,1-1.338,1.982,28.7,28.7,0,0,1-3.584-1.148,1.863,1.863,0,0,0-1.72.181l-5.118,3.417a1.156,1.156,0,0,1-1.792-1.161l.991-5.867a1.868,1.868,0,0,0-.577-1.681,20.418,20.418,0,0,1-6.868-15.005c0-12.235,11.635-22.153,25.985-22.153S710.022,184.688,710.022,196.923Z" transform="translate(-658.041 -174.769)" fill="#5f8fee"/>
      </g>
    </g>
  </g>
</svg>
